<svg height="26" viewBox="0 0 55 26" width="55" xmlns="http://www.w3.org/2000/svg"><path d="m19.1542321.18312235-.0258663-.00078453c.0657131-2.14973726.2976742-4.08212805.6969676-5.79761547.3984299-1.71177735 1.1139811-4.01042351 1.9278102-5.05182035-.6888283 2.2501487-1.1169648 4.05537079-1.2844096 5.41566628-.2234141 1.81498108-.2481006 3.0748755-.2956955 4.7989292 1.8914075-.72505198 4.3359008-1.08757797 7.3334801-1.08757797 3.0036422 0 5.4519589.36399399 7.3449502 1.09198195-.0476747-1.72631303-.0722129-2.98680703-.2958172-4.80333318-.1674448-1.36029549-.5955813-3.16551758-1.2844096-5.41566628.8138291 1.04139684 1.5293804 3.340043 1.9278102 5.05182035.3992934 1.71548742.6312545 3.64787821.6969676 5.79761547l-.0340788.00103361c.0108858 1.56416104-.0221695 2.94299338-.099166 4.13649701-.0799719 1.23962423-.2565194 2.92798979-.5296427 5.06509665-2.1469282-.52929251-4.6659389-.79393877-7.5570321-.79393877-2.8910933 0-5.539432.26464626-7.9450163.79393877-.216436-2.17539949-.3634067-3.86376504-.4409122-5.06509665-.0746898-1.1576883-.120003-2.53660367-.1359396-4.13674609zm1.7978163 30.22468345c-.0306458-.4100467-.0605185-.8454074-.0896178-1.3060823.0010944.0001596.0021888.0003192.0032831.0004787-.0010921-.0163612-.0021865-.0327419-.0032831-.0491418l.8443349.1673635c2.2942349.3100369 4.2242694.4650553 5.7901037.4650553 1.5973035 0 3.5384323-.161312 5.8233864-.4839359l.7490837-.1484829c-.1438858 2.1517242-.2479576 3.9728488-.4336781 5.0421895-.1334074.7681329-.2410203 1.9243689-.5724253 3.0188819.3891585-.4006947.8064018-.739856 1.249464-1.025329.4097159-.2639872.8109464-.4660119 1.2473001-.6415973.9550958-1.9573904 1.4546134-4.2451662 1.5801693-7.432842.0338877-.8603583-.0012103-1.5851106-.1337448-3.3595272-.0378804-.5071555-.0564464-.7647897-.0759479-1.0653811-.0294636-.4541462-.049801-.8519019-.0616983-1.2319922-.0509942-1.6291456-.0509942-3.0458584-.020569-5.4649539.0172296-1.3699237.0200944-1.6442.0200944-2.1531061 0-.7852133-.0005869-.7141092.0277441-3.7596289.0165503-1.77911833.0250509-3.04483067.0271985-4.39687035.0007929-.49920357-.0079712-.89371632-.0365697-1.85863853-.0431979-1.45750955-.0513694-2.14691093-.0176198-3.00265647.0219467-.55647477.0646315-1.12715969.1390445-1.93696847.0119183-.12970244.023257-.25100037.0423319-.45360533.0816268-.86700276.1105181-1.1936254.1401361-1.62306875.2426219-3.51786687.1216708-5.57077198-.5544116-7.09968699-.3774796-.85364481-2.4938741-2.14308331-4.7356351-3.06299881-.4138888-.1698408-.9488695-.3026963-1.5746156-.3971773-.9141059-.1380204-1.7456497-.174843-2.8193884-.174843-.7420888.0000948-1.3315937.0174287-2.0205236.0797593-.9779901.0884832-1.8057567.2513741-2.3927791.492261-2.2417611.9199155-4.3581556 2.209354-4.7356351 3.06299881-.6760824 1.52891501-.7970335 3.58182012-.5544116 7.09968699.029618.42944335.0585092.75606599.1401361 1.62306875.0190749.20260496.0304136.32390289.0423319.45360533.074413.80980878.1170978 1.3804937.1390445 1.93696847.0337496.85574554.0255781 1.54514692-.0176198 3.00265647-.0285985.96492221-.0373626 1.35943496-.0365697 1.85863853.0021476 1.35203968.0106482 2.61775202.0271985 4.39687035.028331 3.0455197.0277441 2.9744156.0277441 3.7596289 0 .5089061.0028648.7831824.0200944 2.1531061.0304252 2.4190955.0304252 3.8358083-.020569 5.4649539-.0118973.3800903-.0322347.777846-.0616984 1.2319922-.0195014.3005914-.0380674.5582256-.0759478 1.0653811-.1325345 1.7744166-.1676325 2.4991689-.1337448 3.3595272.1255559 3.1876758.6250735 5.4754516 1.5801693 7.432842.4363537.1755854.8375842.3776101 1.2473001.6415973.4096247.2639286.7971806.5737478 1.160877.935657-.3106751-1.0676144-.4160376-2.1820242-.5458069-2.9292099-.1452641-.836401-.240577-2.13273-.3440603-3.6874441zm1.0045864 5.2861425c.0680103.503231.1553877 1.0813377.2621324 1.73432.1067938.123104.2112622.2513615.313353.3849539.175176.2292292.8672855.5565242 1.8382386.8050921.9940689.2544857 2.1668566.4056523 3.1361598.4084244.0066849-.0000016.0066849-.0000016.0161726-.0000096.0053044.000003.0049906.0000034.0050088.0000033l.0055911-.0000318c.9698205-.0027508 2.1294331-.1534046 3.111768-.4077288.9573731-.2478616 1.6394786-.5740282 1.8165592-.8057496.0775253-.1014468.1564216-.1998173.2366662-.2951908.1228977-.7472929.220952-1.3985383.2941628-1.953736-.9720087 1.177534-2.6441352 2.0802033-5.4859287 2.0802033-2.7725972 0-4.6337838-.7319274-5.5498838-1.9505504zm-4.7928265-33.36836797c-.0030038-.18826276-.007996-.37688499-.0154453-.56576644-.0510634-1.29474851-.2315862-2.70366031-.319968-3.98514234-.2019767-2.92853651-.2347397-5.59182718.6350133-7.55871519.6339628-1.43366436 3.6848715-2.92517706 5.2576365-3.57056736 1.5530275-.6372909 3.9893288-.6452886 4.7854738-.645389.7636308-.0000013 3.1934101-.0000013 4.7661751.645389s4.6236737 2.136903 5.2576365 3.57056736c.869753 1.96688801.83699 4.63017868.6350133 7.55871519-.0883819 1.28148203-.2689047 2.69039383-.319968 3.98514234-.0073917.18741962-.0123641.37458402-.0153752.56139525.7724628.54519951 1.8225545 1.34894702 1.9686187 1.62479496.1162045.21945678.1588859.47584035.1853776.73422137.0256682.250349.0394416.50625412-.1127015.50625412-.2920131 0-1.8453168-.60785389-2.0167895-.79167753.0213889.74399033.0469447 1.47607151.0458112 2.18964161-.0053327 3.35727613-.0549413 6.30478913-.0549413 8.15495933 0 1.8956894-.09077 4.6878415 0 7.5877293.0608511 1.944053.3412457 3.9448599.2711144 5.7253871-.1425444 3.6189868-.7608441 6.0807149-1.8546694 8.1701057-.7983212.2844634-1.9766324.8111847-3.0227501 2.1800978-.7373118.9648204-3.6236239 1.5913371-5.7029971 1.5972351-.0049209.000042-.0098468.0000385-.0147777.0000315-.0049303.000007-.009856.0000105-.014777.0000105-2.0798304-.0059393-5.0145383-.6324562-5.7518505-1.5972771-1.0461177-1.3689131-2.2244289-1.8956344-3.0227502-2.1800978-1.0938252-2.0893908-1.7121249-4.5511189-1.8546693-8.1701057-.0701313-1.7805272.2102633-3.7813341.2711144-5.7253871.09077-2.8998878 0-5.6920399 0-7.5877293 0-1.8501702-.0496086-4.7976832-.0549413-8.15495933-.0011302-.71149272.0242737-1.4413889.0456243-2.18314411-.2005247.19120346-1.7216806.78518003-2.0103411.78518003-.1521431 0-.1383697-.25590512-.1127015-.50625412.0264917-.25838102.0691731-.51476459.1853776-.73422137.1456743-.27511166 1.1905566-1.07530854 1.9624273-1.62042377zm-.0023672 1.14099911c-.0003794.0027784-.0005691.00568128-.0005691.00870863v.02446059c.0001933-.01106484.0003831-.02211604.0005691-.03316922zm20.6705436-.0187804c.0019831.12051396.0044064.24079409.0071433.36081332 0-.1392601 0-.26226751 0-.33332429 0-.01072544-.0023811-.01988845-.0071433-.02748903zm-17.9954795 7.11329586c2.4121091-.57422225 4.9693605-.86133339 7.6717541-.86133339s5.2584845.28711114 7.6682726.86133339l-1.0991168 17.4482623c-2.4563938.4177852-4.6461124.6266778-6.5691558.6266778s-4.1324955-.2088926-6.6283564-.6266778z" fill="#fff" transform="matrix(0 1 1 0 14.5 -14.5)"/></svg>